# xmcd
#
# Track frame offsets:
#	150
#	22733
#	38330
#	53177
#	67134
#	81294
#	95704
#	113394
#	123958
#	140653
#	153310
#	164797
#	181900
#	200081
#	213028
#	260092
#	287378
#	307750
#	321365
#
# Disc length: 4595 seconds
#
# Revision: 1
# Processed by: cddbd v1.5.1PL2 Copyright (c) Steve Scherf et al.
# Submitted via: audiograbber 1.83.01
#
DISCID=0711f113
DTITLE=The Impressions - Check out of the Impressions
DYEAR=1900
DGENRE=Soul
TTITLE0=First impressions
TTITLE1=Ckeck out your mind
TTITLE2=Choice of colours
TTITLE3=Finally got myself together
TTITLE4=Loving power
TTITLE5=Preacher man
TTITLE6=We must be in love
TTITLE7=Mighty, mighty (spade and whitey)
TTITLE8=Gone away
TTITLE9=This is my country
TTITLE10=Whenever he leadeth me
TTITLE11=We go back a ways
TTITLE12=Ain't got time
TTITLE13=Foll for you
TTITLE14=Thin line
TTITLE15=Come to my party
TTITLE16=I cound never make you stay
TTITLE17=Mabe I'm mistaken
TTITLE18=For your precious love
EXTD=
EXTT0=
EXTT1=
EXTT2=
EXTT3=
EXTT4=
EXTT5=
EXTT6=
EXTT7=
EXTT8=
EXTT9=
EXTT10=
EXTT11=
EXTT12=
EXTT13=
EXTT14=
EXTT15=
EXTT16=
EXTT17=
EXTT18=
PLAYORDER=
